<svg xmlns="http://www.w3.org/2000/svg" xmlns:xlink="http://www.w3.org/1999/xlink" width="1920" zoomAndPan="magnify" viewBox="0 0 1440 809.999993" height="1080" preserveAspectRatio="xMidYMid meet" version="1.0"><defs><g/><clipPath id="id1"><path d="M 241 489 L 442 489 L 442 576 L 241 576 Z M 241 489 " clip-rule="nonzero"/></clipPath><clipPath id="id2"><path d="M 361.648438 444.992188 L 441.726562 525.070312 L 321.34375 645.457031 L 241.261719 565.375 Z M 361.648438 444.992188 " clip-rule="nonzero"/></clipPath><clipPath id="id3"><path d="M 321.65625 405 L 442.042969 525.386719 L 321.65625 645.769531 L 201.273438 525.386719 Z M 321.65625 405 " clip-rule="nonzero"/></clipPath><clipPath id="id4"><path d="M 151 284 L 238 284 L 238 526 L 151 526 Z M 151 284 " clip-rule="nonzero"/></clipPath><clipPath id="id5"><path d="M 321.65625 405 L 201.269531 525.382812 L 80.882812 405 L 201.269531 284.613281 Z M 321.65625 405 " clip-rule="nonzero"/></clipPath><clipPath id="id6"><path d="M 321.65625 405 L 201.269531 525.382812 L 80.882812 405 L 201.269531 284.613281 Z M 321.65625 405 " clip-rule="nonzero"/></clipPath><clipPath id="id7"><path d="M 406 284 L 492 284 L 492 526 L 406 526 Z M 406 284 " clip-rule="nonzero"/></clipPath><clipPath id="id8"><path d="M 321.660156 405 L 442.042969 284.613281 L 562.429688 405 L 442.042969 525.382812 Z M 321.660156 405 " clip-rule="nonzero"/></clipPath><clipPath id="id9"><path d="M 321.660156 405 L 442.042969 284.613281 L 562.429688 405 L 442.042969 525.382812 Z M 321.660156 405 " clip-rule="nonzero"/></clipPath><clipPath id="id10"><path d="M 201 234 L 404 234 L 404 321 L 201 321 Z M 201 234 " clip-rule="nonzero"/></clipPath><clipPath id="id11"><path d="M 282.636719 365.976562 L 201.496094 284.835938 L 321.878906 164.449219 L 403.019531 245.589844 Z M 282.636719 365.976562 " clip-rule="nonzero"/></clipPath><clipPath id="id12"><path d="M 321.652344 404.996094 L 201.269531 284.609375 L 321.652344 164.222656 L 442.039062 284.609375 Z M 321.652344 404.996094 " clip-rule="nonzero"/></clipPath><clipPath id="id13"><path d="M 151.40625 234.746094 L 321.65625 234.746094 L 321.65625 404.996094 L 151.40625 404.996094 Z M 151.40625 234.746094 " clip-rule="nonzero"/></clipPath><clipPath id="id14"><path d="M 321.660156 405 L 491.910156 405 L 491.910156 575.25 L 321.660156 575.25 Z M 321.660156 405 " clip-rule="nonzero"/></clipPath><clipPath id="id15"><path d="M 459.042969 234.664062 L 525.042969 234.664062 L 525.042969 575.164062 L 459.042969 575.164062 Z M 459.042969 234.664062 " clip-rule="nonzero"/></clipPath><clipPath id="id16"><path d="M 459.042969 234.664062 L 503 234.664062 L 503 553 L 459.042969 553 Z M 459.042969 234.664062 " clip-rule="nonzero"/></clipPath><clipPath id="id17"><path d="M 118.425781 234.828125 L 184.425781 234.828125 L 184.425781 575.328125 L 118.425781 575.328125 Z M 118.425781 234.828125 " clip-rule="nonzero"/></clipPath><clipPath id="id18"><path d="M 140 256 L 184.425781 256 L 184.425781 575.328125 L 140 575.328125 Z M 140 256 " clip-rule="nonzero"/></clipPath></defs><g clip-path="url(#id1)"><g clip-path="url(#id2)"><g clip-path="url(#id3)"><path fill="rgb(100%, 100%, 100%)" d="M 406.046875 489.390625 C 359.480469 535.960938 283.832031 535.960938 237.265625 489.390625 L 201.273438 525.386719 C 267.769531 591.882812 375.546875 591.882812 442.042969 525.386719 Z M 406.046875 489.390625 " fill-opacity="1" fill-rule="nonzero"/></g></g></g><path stroke-linecap="butt" transform="matrix(33.384666, -33.384666, 33.201612, 33.201612, 167.834091, 558.931096)" fill="none" stroke-linejoin="miter" d="M 0.0000487545 0.0000066042 L 9.197876 0.0000066042 " stroke="rgb(100%, 100%, 100%)" stroke-width="1" stroke-opacity="1" stroke-miterlimit="4"/><g clip-path="url(#id4)"><g clip-path="url(#id5)"><g clip-path="url(#id6)"><path fill="rgb(100%, 100%, 100%)" d="M 237.261719 489.390625 C 190.695312 442.820312 190.695312 367.175781 237.261719 320.605469 L 201.269531 284.613281 C 134.773438 351.109375 134.773438 458.886719 201.269531 525.382812 Z M 237.261719 489.390625 " fill-opacity="1" fill-rule="nonzero"/></g></g></g><g clip-path="url(#id7)"><g clip-path="url(#id8)"><g clip-path="url(#id9)"><path fill="rgb(100%, 100%, 100%)" d="M 406.050781 320.605469 C 452.617188 367.175781 452.617188 442.820312 406.050781 489.390625 L 442.042969 525.382812 C 508.539062 458.886719 508.539062 351.109375 442.042969 284.613281 Z M 406.050781 320.605469 " fill-opacity="1" fill-rule="nonzero"/></g></g></g><g clip-path="url(#id10)"><g clip-path="url(#id11)"><g clip-path="url(#id12)"><path fill="rgb(100%, 100%, 100%)" d="M 237.261719 320.601562 C 283.832031 274.035156 359.476562 274.035156 406.046875 320.601562 L 442.039062 284.609375 C 375.542969 218.113281 267.765625 218.113281 201.269531 284.609375 Z M 237.261719 320.601562 " fill-opacity="1" fill-rule="nonzero"/></g></g></g><g clip-path="url(#id13)"><path fill="rgb(100%, 100%, 100%)" d="M 202.308594 404.996094 C 202.308594 339.140625 255.796875 285.648438 321.65625 285.648438 L 321.65625 234.746094 C 227.613281 234.746094 151.40625 310.957031 151.40625 404.996094 Z M 202.308594 404.996094 " fill-opacity="1" fill-rule="nonzero"/></g><g clip-path="url(#id14)"><path fill="rgb(100%, 100%, 100%)" d="M 441.007812 405 C 441.007812 470.855469 387.515625 524.347656 321.660156 524.347656 L 321.660156 575.25 C 415.699219 575.25 491.910156 499.039062 491.910156 405 Z M 441.007812 405 " fill-opacity="1" fill-rule="nonzero"/></g><path fill="rgb(100%, 100%, 100%)" d="M 321.558594 331.472656 C 280.757812 331.472656 247.683594 364.550781 247.683594 405.347656 C 247.683594 446.148438 280.757812 479.222656 321.558594 479.222656 C 362.355469 479.222656 395.433594 446.148438 395.433594 405.347656 C 395.433594 364.550781 362.355469 331.472656 321.558594 331.472656 " fill-opacity="1" fill-rule="nonzero"/><g clip-path="url(#id15)"><path fill="rgb(100%, 100%, 100%)" d="M 476.761719 234.664062 L 184.589844 524.261719 L 184.589844 575.164062 L 525.089844 234.664062 Z M 476.761719 234.664062 " fill-opacity="1" fill-rule="nonzero"/></g><g clip-path="url(#id16)"><path fill="rgb(100%, 100%, 100%)" d="M 301.621094 234.664062 L 184.589844 351.699219 L 184.589844 552.996094 L 502.917969 234.664062 Z M 301.621094 234.664062 " fill-opacity="1" fill-rule="nonzero"/></g><g clip-path="url(#id17)"><path fill="rgb(100%, 100%, 100%)" d="M 166.707031 575.328125 L 458.875 285.730469 L 458.875 234.828125 L 118.378906 575.328125 Z M 166.707031 575.328125 " fill-opacity="1" fill-rule="nonzero"/></g><g clip-path="url(#id18)"><path fill="rgb(100%, 100%, 100%)" d="M 341.84375 575.328125 L 458.875 458.292969 L 458.875 256.996094 L 140.546875 575.328125 Z M 341.84375 575.328125 " fill-opacity="1" fill-rule="nonzero"/></g><g fill="rgb(100%, 100%, 100%)" fill-opacity="1"><g transform="translate(562.317866, 417.263495)"><g><path d="M 91.59375 0 L 5.375 0 L 5.375 -17.578125 L 55.953125 -86.40625 L 8.390625 -86.40625 L 8.390625 -109.15625 L 89.828125 -109.15625 L 89.828125 -89.828125 L 40.625 -22.75 L 91.59375 -22.75 Z M 91.59375 0 "/></g></g><g transform="translate(659.863041, 417.263495)"><g><path d="M 60.640625 -111.21875 C 70.722656 -111.21875 79.410156 -109.28125 86.703125 -105.40625 C 93.992188 -101.53125 99.625 -95.914062 103.59375 -88.5625 C 107.5625 -81.207031 109.546875 -72.222656 109.546875 -61.609375 L 109.546875 -47.15625 L 39.15625 -47.15625 C 39.476562 -38.757812 42 -32.171875 46.71875 -27.390625 C 51.4375 -22.609375 57.992188 -20.21875 66.390625 -20.21875 C 73.359375 -20.21875 79.738281 -20.929688 85.53125 -22.359375 C 91.320312 -23.796875 97.28125 -25.941406 103.40625 -28.796875 L 103.40625 -5.765625 C 98 -3.085938 92.347656 -1.132812 86.453125 0.09375 C 80.566406 1.332031 73.425781 1.953125 65.03125 1.953125 C 54.09375 1.953125 44.410156 -0.0625 35.984375 -4.09375 C 27.554688 -8.132812 20.945312 -14.285156 16.15625 -22.546875 C 11.375 -30.816406 8.984375 -41.234375 8.984375 -53.796875 C 8.984375 -66.554688 11.144531 -77.179688 15.46875 -85.671875 C 19.800781 -94.171875 25.835938 -100.550781 33.578125 -104.8125 C 41.328125 -109.082031 50.347656 -111.21875 60.640625 -111.21875 Z M 60.828125 -90.03125 C 55.035156 -90.03125 50.234375 -88.171875 46.421875 -84.453125 C 42.617188 -80.742188 40.425781 -74.921875 39.84375 -66.984375 L 81.625 -66.984375 C 81.5625 -71.410156 80.765625 -75.347656 79.234375 -78.796875 C 77.703125 -82.242188 75.421875 -84.976562 72.390625 -87 C 69.367188 -89.019531 65.515625 -90.03125 60.828125 -90.03125 Z M 60.828125 -90.03125 "/></g></g><g transform="translate(778.010849, 417.263495)"><g><path d="M 60.640625 -111.21875 C 70.722656 -111.21875 79.410156 -109.28125 86.703125 -105.40625 C 93.992188 -101.53125 99.625 -95.914062 103.59375 -88.5625 C 107.5625 -81.207031 109.546875 -72.222656 109.546875 -61.609375 L 109.546875 -47.15625 L 39.15625 -47.15625 C 39.476562 -38.757812 42 -32.171875 46.71875 -27.390625 C 51.4375 -22.609375 57.992188 -20.21875 66.390625 -20.21875 C 73.359375 -20.21875 79.738281 -20.929688 85.53125 -22.359375 C 91.320312 -23.796875 97.28125 -25.941406 103.40625 -28.796875 L 103.40625 -5.765625 C 98 -3.085938 92.347656 -1.132812 86.453125 0.09375 C 80.566406 1.332031 73.425781 1.953125 65.03125 1.953125 C 54.09375 1.953125 44.410156 -0.0625 35.984375 -4.09375 C 27.554688 -8.132812 20.945312 -14.285156 16.15625 -22.546875 C 11.375 -30.816406 8.984375 -41.234375 8.984375 -53.796875 C 8.984375 -66.554688 11.144531 -77.179688 15.46875 -85.671875 C 19.800781 -94.171875 25.835938 -100.550781 33.578125 -104.8125 C 41.328125 -109.082031 50.347656 -111.21875 60.640625 -111.21875 Z M 60.828125 -90.03125 C 55.035156 -90.03125 50.234375 -88.171875 46.421875 -84.453125 C 42.617188 -80.742188 40.425781 -74.921875 39.84375 -66.984375 L 81.625 -66.984375 C 81.5625 -71.410156 80.765625 -75.347656 79.234375 -78.796875 C 77.703125 -82.242188 75.421875 -84.976562 72.390625 -87 C 69.367188 -89.019531 65.515625 -90.03125 60.828125 -90.03125 Z M 60.828125 -90.03125 "/></g></g><g transform="translate(896.158658, 417.263495)"><g><path d="M 76.546875 -111.21875 C 78.046875 -111.21875 79.785156 -111.132812 81.765625 -110.96875 C 83.753906 -110.800781 85.367188 -110.585938 86.609375 -110.328125 L 84.359375 -82.40625 C 83.378906 -82.726562 81.992188 -82.972656 80.203125 -83.140625 C 78.421875 -83.304688 76.878906 -83.390625 75.578125 -83.390625 C 71.734375 -83.390625 68.003906 -82.898438 64.390625 -81.921875 C 60.773438 -80.941406 57.535156 -79.363281 54.671875 -77.1875 C 51.804688 -75.007812 49.546875 -72.144531 47.890625 -68.59375 C 46.234375 -65.039062 45.40625 -60.695312 45.40625 -55.5625 L 45.40625 0 L 15.625 0 L 15.625 -109.15625 L 38.171875 -109.15625 L 42.578125 -90.8125 L 44.03125 -90.8125 C 46.1875 -94.519531 48.875 -97.914062 52.09375 -101 C 55.3125 -104.09375 58.988281 -106.566406 63.125 -108.421875 C 67.257812 -110.285156 71.734375 -111.21875 76.546875 -111.21875 Z M 76.546875 -111.21875 "/></g></g><g transform="translate(986.966477, 417.263495)"><g><path d="M 114.828125 -54.78125 C 114.828125 -45.664062 113.601562 -37.59375 111.15625 -30.5625 C 108.71875 -23.53125 105.171875 -17.585938 100.515625 -12.734375 C 95.867188 -7.890625 90.273438 -4.226562 83.734375 -1.75 C 77.191406 0.71875 69.816406 1.953125 61.609375 1.953125 C 53.929688 1.953125 46.882812 0.71875 40.46875 -1.75 C 34.0625 -4.226562 28.5 -7.890625 23.78125 -12.734375 C 19.0625 -17.585938 15.414062 -23.53125 12.84375 -30.5625 C 10.269531 -37.59375 8.984375 -45.664062 8.984375 -54.78125 C 8.984375 -66.882812 11.128906 -77.132812 15.421875 -85.53125 C 19.722656 -93.925781 25.84375 -100.304688 33.78125 -104.671875 C 41.726562 -109.035156 51.203125 -111.21875 62.203125 -111.21875 C 72.421875 -111.21875 81.484375 -109.035156 89.390625 -104.671875 C 97.296875 -100.304688 103.507812 -93.925781 108.03125 -85.53125 C 112.5625 -77.132812 114.828125 -66.882812 114.828125 -54.78125 Z M 39.34375 -54.78125 C 39.34375 -47.613281 40.125 -41.585938 41.6875 -36.703125 C 43.25 -31.828125 45.691406 -28.148438 49.015625 -25.671875 C 52.335938 -23.203125 56.664062 -21.96875 62 -21.96875 C 67.269531 -21.96875 71.546875 -23.203125 74.828125 -25.671875 C 78.117188 -28.148438 80.53125 -31.828125 82.0625 -36.703125 C 83.59375 -41.585938 84.359375 -47.613281 84.359375 -54.78125 C 84.359375 -62 83.59375 -68 82.0625 -72.78125 C 80.53125 -77.570312 78.101562 -81.171875 74.78125 -83.578125 C 71.46875 -85.984375 67.144531 -87.1875 61.8125 -87.1875 C 53.9375 -87.1875 48.222656 -84.484375 44.671875 -79.078125 C 41.117188 -73.679688 39.34375 -65.582031 39.34375 -54.78125 Z M 39.34375 -54.78125 "/></g></g><g transform="translate(1110.777571, 417.263495)"><g><path d="M 60.34375 -111.40625 C 74.988281 -111.40625 86.21875 -108.210938 94.03125 -101.828125 C 101.84375 -95.453125 105.75 -85.757812 105.75 -72.75 L 105.75 0 L 84.953125 0 L 79.1875 -14.84375 L 78.40625 -14.84375 C 75.28125 -10.9375 72.085938 -7.742188 68.828125 -5.265625 C 65.578125 -2.796875 61.835938 -0.976562 57.609375 0.1875 C 53.378906 1.363281 48.238281 1.953125 42.1875 1.953125 C 35.738281 1.953125 29.957031 0.71875 24.84375 -1.75 C 19.738281 -4.226562 15.71875 -8.019531 12.78125 -13.125 C 9.851562 -18.238281 8.390625 -24.734375 8.390625 -32.609375 C 8.390625 -44.203125 12.457031 -52.75 20.59375 -58.25 C 28.738281 -63.75 40.945312 -66.789062 57.21875 -67.375 L 76.15625 -67.953125 L 76.15625 -72.75 C 76.15625 -78.46875 74.65625 -82.660156 71.65625 -85.328125 C 68.664062 -88.003906 64.503906 -89.34375 59.171875 -89.34375 C 53.898438 -89.34375 48.722656 -88.59375 43.640625 -87.09375 C 38.566406 -85.59375 33.488281 -83.707031 28.40625 -81.4375 L 18.546875 -101.546875 C 24.335938 -104.609375 30.832031 -107.015625 38.03125 -108.765625 C 45.226562 -110.523438 52.664062 -111.40625 60.34375 -111.40625 Z M 76.15625 -50.578125 L 64.640625 -50.1875 C 55.003906 -49.925781 48.3125 -48.203125 44.5625 -45.015625 C 40.820312 -41.828125 38.953125 -37.628906 38.953125 -32.421875 C 38.953125 -27.859375 40.285156 -24.617188 42.953125 -22.703125 C 45.628906 -20.785156 49.113281 -19.828125 53.40625 -19.828125 C 59.789062 -19.828125 65.175781 -21.710938 69.5625 -25.484375 C 73.957031 -29.253906 76.15625 -34.625 76.15625 -41.59375 Z M 76.15625 -50.578125 "/></g></g><g transform="translate(1231.561737, 417.263495)"><g><path d="M 50.1875 1.953125 C 38.007812 1.953125 28.097656 -2.8125 20.453125 -12.34375 C 12.804688 -21.882812 8.984375 -35.898438 8.984375 -54.390625 C 8.984375 -73.066406 12.851562 -87.207031 20.59375 -96.8125 C 28.34375 -106.414062 38.46875 -111.21875 50.96875 -111.21875 C 56.175781 -111.21875 60.765625 -110.5 64.734375 -109.0625 C 68.703125 -107.632812 72.132812 -105.710938 75.03125 -103.296875 C 77.925781 -100.890625 80.382812 -98.191406 82.40625 -95.203125 L 83.390625 -95.203125 C 82.992188 -97.285156 82.519531 -100.359375 81.96875 -104.421875 C 81.414062 -108.492188 81.140625 -112.675781 81.140625 -116.96875 L 81.140625 -151.921875 L 111.015625 -151.921875 L 111.015625 0 L 88.171875 0 L 82.40625 -14.15625 L 81.140625 -14.15625 C 79.253906 -11.164062 76.894531 -8.445312 74.0625 -6 C 71.226562 -3.5625 67.859375 -1.625 63.953125 -0.1875 C 60.046875 1.238281 55.457031 1.953125 50.1875 1.953125 Z M 60.640625 -21.78125 C 68.773438 -21.78125 74.515625 -24.203125 77.859375 -29.046875 C 81.210938 -33.898438 82.988281 -41.207031 83.1875 -50.96875 L 83.1875 -54.1875 C 83.1875 -64.800781 81.554688 -72.921875 78.296875 -78.546875 C 75.046875 -84.179688 68.992188 -87 60.140625 -87 C 53.566406 -87 48.425781 -84.164062 44.71875 -78.5 C 41.007812 -72.84375 39.15625 -64.675781 39.15625 -54 C 39.15625 -43.320312 41.023438 -35.28125 44.765625 -29.875 C 48.503906 -24.476562 53.796875 -21.78125 60.640625 -21.78125 Z M 60.640625 -21.78125 "/></g></g></g><g fill="rgb(100%, 100%, 100%)" fill-opacity="1"><g transform="translate(562.329585, 542.309345)"><g><path d="M 32.96875 1.078125 C 24.445312 1.078125 17.847656 -1.539062 13.171875 -6.78125 C 8.503906 -12.03125 6.171875 -19.453125 6.171875 -29.046875 C 6.171875 -38.898438 8.539062 -46.507812 13.28125 -51.875 C 18.03125 -57.25 24.789062 -59.9375 33.5625 -59.9375 C 36.394531 -59.9375 39.222656 -59.628906 42.046875 -59.015625 C 44.878906 -58.410156 47.097656 -57.695312 48.703125 -56.875 L 45.96875 -49.296875 C 44 -50.085938 41.847656 -50.738281 39.515625 -51.25 C 37.191406 -51.769531 35.132812 -52.03125 33.34375 -52.03125 C 21.382812 -52.03125 15.40625 -44.40625 15.40625 -29.15625 C 15.40625 -21.925781 16.863281 -16.378906 19.78125 -12.515625 C 22.707031 -8.648438 27.035156 -6.71875 32.765625 -6.71875 C 37.660156 -6.71875 42.6875 -7.769531 47.84375 -9.875 L 47.84375 -1.984375 C 43.90625 0.0546875 38.945312 1.078125 32.96875 1.078125 Z M 32.96875 1.078125 "/></g></g></g><g fill="rgb(100%, 100%, 100%)" fill-opacity="1"><g transform="translate(614.688454, 542.309345)"><g><path d="M 36.296875 -59.9375 C 38.910156 -59.9375 41.257812 -59.71875 43.34375 -59.28125 L 42.109375 -51.015625 C 39.671875 -51.554688 37.519531 -51.828125 35.65625 -51.828125 C 30.894531 -51.828125 26.820312 -49.890625 23.4375 -46.015625 C 20.050781 -42.148438 18.359375 -37.335938 18.359375 -31.578125 L 18.359375 0 L 9.453125 0 L 9.453125 -58.859375 L 16.8125 -58.859375 L 17.828125 -47.953125 L 18.265625 -47.953125 C 20.441406 -51.785156 23.066406 -54.738281 26.140625 -56.8125 C 29.222656 -58.894531 32.609375 -59.9375 36.296875 -59.9375 Z M 36.296875 -59.9375 "/></g></g></g><g fill="rgb(100%, 100%, 100%)" fill-opacity="1"><g transform="translate(659.582822, 542.309345)"><g><path d="M 34.3125 1.078125 C 25.613281 1.078125 18.75 -1.570312 13.71875 -6.875 C 8.6875 -12.175781 6.171875 -19.535156 6.171875 -28.953125 C 6.171875 -38.429688 8.503906 -45.960938 13.171875 -51.546875 C 17.847656 -57.140625 24.125 -59.9375 32 -59.9375 C 39.375 -59.9375 45.207031 -57.507812 49.5 -52.65625 C 53.800781 -47.800781 55.953125 -41.398438 55.953125 -33.453125 L 55.953125 -27.8125 L 15.40625 -27.8125 C 15.59375 -20.90625 17.335938 -15.660156 20.640625 -12.078125 C 23.953125 -8.503906 28.617188 -6.71875 34.640625 -6.71875 C 40.972656 -6.71875 47.238281 -8.039062 53.4375 -10.6875 L 53.4375 -2.734375 C 50.28125 -1.378906 47.296875 -0.40625 44.484375 0.1875 C 41.679688 0.78125 38.289062 1.078125 34.3125 1.078125 Z M 31.90625 -52.46875 C 27.175781 -52.46875 23.40625 -50.925781 20.59375 -47.84375 C 17.78125 -44.769531 16.125 -40.507812 15.625 -35.0625 L 46.40625 -35.0625 C 46.40625 -40.6875 45.148438 -44.992188 42.640625 -47.984375 C 40.128906 -50.972656 36.550781 -52.46875 31.90625 -52.46875 Z M 31.90625 -52.46875 "/></g></g></g><g fill="rgb(100%, 100%, 100%)" fill-opacity="1"><g transform="translate(721.285735, 542.309345)"><g><path d="M 45.640625 0 L 43.875 -8.375 L 43.453125 -8.375 C 40.515625 -4.6875 37.582031 -2.1875 34.65625 -0.875 C 31.738281 0.425781 28.097656 1.078125 23.734375 1.078125 C 17.898438 1.078125 13.328125 -0.425781 10.015625 -3.4375 C 6.703125 -6.445312 5.046875 -10.722656 5.046875 -16.265625 C 5.046875 -28.160156 14.550781 -34.390625 33.5625 -34.953125 L 43.546875 -35.28125 L 43.546875 -38.9375 C 43.546875 -43.550781 42.550781 -46.957031 40.5625 -49.15625 C 38.582031 -51.363281 35.410156 -52.46875 31.046875 -52.46875 C 26.140625 -52.46875 20.585938 -50.960938 14.390625 -47.953125 L 11.65625 -54.78125 C 14.550781 -56.351562 17.726562 -57.585938 21.1875 -58.484375 C 24.644531 -59.378906 28.109375 -59.828125 31.578125 -59.828125 C 38.597656 -59.828125 43.796875 -58.269531 47.171875 -55.15625 C 50.554688 -52.039062 52.25 -47.046875 52.25 -40.171875 L 52.25 0 Z M 25.515625 -6.28125 C 31.054688 -6.28125 35.410156 -7.800781 38.578125 -10.84375 C 41.753906 -13.882812 43.34375 -18.144531 43.34375 -23.625 L 43.34375 -28.953125 L 34.421875 -28.5625 C 27.335938 -28.3125 22.226562 -27.210938 19.09375 -25.265625 C 15.957031 -23.316406 14.390625 -20.285156 14.390625 -16.171875 C 14.390625 -12.941406 15.363281 -10.484375 17.3125 -8.796875 C 19.269531 -7.117188 22.003906 -6.28125 25.515625 -6.28125 Z M 25.515625 -6.28125 "/></g></g></g><g fill="rgb(100%, 100%, 100%)" fill-opacity="1"><g transform="translate(782.451644, 542.309345)"><g><path d="M 28.46875 -6.28125 C 30.039062 -6.28125 31.5625 -6.394531 33.03125 -6.625 C 34.5 -6.863281 35.660156 -7.109375 36.515625 -7.359375 L 36.515625 -0.53125 C 35.546875 -0.0703125 34.117188 0.304688 32.234375 0.609375 C 30.359375 0.921875 28.671875 1.078125 27.171875 1.078125 C 15.785156 1.078125 10.09375 -4.921875 10.09375 -16.921875 L 10.09375 -51.9375 L 1.671875 -51.9375 L 1.671875 -56.234375 L 10.09375 -59.9375 L 13.859375 -72.5 L 19.015625 -72.5 L 19.015625 -58.859375 L 36.09375 -58.859375 L 36.09375 -51.9375 L 19.015625 -51.9375 L 19.015625 -17.296875 C 19.015625 -13.742188 19.851562 -11.019531 21.53125 -9.125 C 23.21875 -7.226562 25.53125 -6.28125 28.46875 -6.28125 Z M 28.46875 -6.28125 "/></g></g></g><g fill="rgb(100%, 100%, 100%)" fill-opacity="1"><g transform="translate(821.277761, 542.309345)"><g><path d="M 34.3125 1.078125 C 25.613281 1.078125 18.75 -1.570312 13.71875 -6.875 C 8.6875 -12.175781 6.171875 -19.535156 6.171875 -28.953125 C 6.171875 -38.429688 8.503906 -45.960938 13.171875 -51.546875 C 17.847656 -57.140625 24.125 -59.9375 32 -59.9375 C 39.375 -59.9375 45.207031 -57.507812 49.5 -52.65625 C 53.800781 -47.800781 55.953125 -41.398438 55.953125 -33.453125 L 55.953125 -27.8125 L 15.40625 -27.8125 C 15.59375 -20.90625 17.335938 -15.660156 20.640625 -12.078125 C 23.953125 -8.503906 28.617188 -6.71875 34.640625 -6.71875 C 40.972656 -6.71875 47.238281 -8.039062 53.4375 -10.6875 L 53.4375 -2.734375 C 50.28125 -1.378906 47.296875 -0.40625 44.484375 0.1875 C 41.679688 0.78125 38.289062 1.078125 34.3125 1.078125 Z M 31.90625 -52.46875 C 27.175781 -52.46875 23.40625 -50.925781 20.59375 -47.84375 C 17.78125 -44.769531 16.125 -40.507812 15.625 -35.0625 L 46.40625 -35.0625 C 46.40625 -40.6875 45.148438 -44.992188 42.640625 -47.984375 C 40.128906 -50.972656 36.550781 -52.46875 31.90625 -52.46875 Z M 31.90625 -52.46875 "/></g></g></g><g fill="rgb(100%, 100%, 100%)" fill-opacity="1"><g transform="translate(882.980661, 542.309345)"><g/></g></g><g fill="rgb(100%, 100%, 100%)" fill-opacity="1"><g transform="translate(911.549805, 542.309345)"><g><path d="M 36.84375 -59.828125 C 44.570312 -59.828125 50.578125 -57.1875 54.859375 -51.90625 C 59.140625 -46.625 61.28125 -39.148438 61.28125 -29.484375 C 61.28125 -19.816406 59.117188 -12.304688 54.796875 -6.953125 C 50.484375 -1.597656 44.5 1.078125 36.84375 1.078125 C 33.007812 1.078125 29.507812 0.367188 26.34375 -1.046875 C 23.175781 -2.460938 20.515625 -4.640625 18.359375 -7.578125 L 17.71875 -7.578125 L 15.84375 0 L 9.453125 0 L 9.453125 -83.5625 L 18.359375 -83.5625 L 18.359375 -63.265625 C 18.359375 -58.710938 18.21875 -54.628906 17.9375 -51.015625 L 18.359375 -51.015625 C 22.515625 -56.890625 28.675781 -59.828125 36.84375 -59.828125 Z M 35.546875 -52.359375 C 29.460938 -52.359375 25.078125 -50.613281 22.390625 -47.125 C 19.703125 -43.632812 18.359375 -37.753906 18.359375 -29.484375 C 18.359375 -21.210938 19.738281 -15.296875 22.5 -11.734375 C 25.257812 -8.171875 29.679688 -6.390625 35.765625 -6.390625 C 41.242188 -6.390625 45.320312 -8.382812 48 -12.375 C 50.6875 -16.363281 52.03125 -22.101562 52.03125 -29.59375 C 52.03125 -37.25 50.6875 -42.957031 48 -46.71875 C 45.320312 -50.476562 41.171875 -52.359375 35.546875 -52.359375 Z M 35.546875 -52.359375 "/></g></g></g><g fill="rgb(100%, 100%, 100%)" fill-opacity="1"><g transform="translate(978.945042, 542.309345)"><g><path d="M 34.3125 1.078125 C 25.613281 1.078125 18.75 -1.570312 13.71875 -6.875 C 8.6875 -12.175781 6.171875 -19.535156 6.171875 -28.953125 C 6.171875 -38.429688 8.503906 -45.960938 13.171875 -51.546875 C 17.847656 -57.140625 24.125 -59.9375 32 -59.9375 C 39.375 -59.9375 45.207031 -57.507812 49.5 -52.65625 C 53.800781 -47.800781 55.953125 -41.398438 55.953125 -33.453125 L 55.953125 -27.8125 L 15.40625 -27.8125 C 15.59375 -20.90625 17.335938 -15.660156 20.640625 -12.078125 C 23.953125 -8.503906 28.617188 -6.71875 34.640625 -6.71875 C 40.972656 -6.71875 47.238281 -8.039062 53.4375 -10.6875 L 53.4375 -2.734375 C 50.28125 -1.378906 47.296875 -0.40625 44.484375 0.1875 C 41.679688 0.78125 38.289062 1.078125 34.3125 1.078125 Z M 31.90625 -52.46875 C 27.175781 -52.46875 23.40625 -50.925781 20.59375 -47.84375 C 17.78125 -44.769531 16.125 -40.507812 15.625 -35.0625 L 46.40625 -35.0625 C 46.40625 -40.6875 45.148438 -44.992188 42.640625 -47.984375 C 40.128906 -50.972656 36.550781 -52.46875 31.90625 -52.46875 Z M 31.90625 -52.46875 "/></g></g></g><g fill="rgb(100%, 100%, 100%)" fill-opacity="1"><g transform="translate(1040.647966, 542.309345)"><g><path d="M 28.46875 -6.28125 C 30.039062 -6.28125 31.5625 -6.394531 33.03125 -6.625 C 34.5 -6.863281 35.660156 -7.109375 36.515625 -7.359375 L 36.515625 -0.53125 C 35.546875 -0.0703125 34.117188 0.304688 32.234375 0.609375 C 30.359375 0.921875 28.671875 1.078125 27.171875 1.078125 C 15.785156 1.078125 10.09375 -4.921875 10.09375 -16.921875 L 10.09375 -51.9375 L 1.671875 -51.9375 L 1.671875 -56.234375 L 10.09375 -59.9375 L 13.859375 -72.5 L 19.015625 -72.5 L 19.015625 -58.859375 L 36.09375 -58.859375 L 36.09375 -51.9375 L 19.015625 -51.9375 L 19.015625 -17.296875 C 19.015625 -13.742188 19.851562 -11.019531 21.53125 -9.125 C 23.21875 -7.226562 25.53125 -6.28125 28.46875 -6.28125 Z M 28.46875 -6.28125 "/></g></g></g><g fill="rgb(100%, 100%, 100%)" fill-opacity="1"><g transform="translate(1079.474059, 542.309345)"><g><path d="M 28.46875 -6.28125 C 30.039062 -6.28125 31.5625 -6.394531 33.03125 -6.625 C 34.5 -6.863281 35.660156 -7.109375 36.515625 -7.359375 L 36.515625 -0.53125 C 35.546875 -0.0703125 34.117188 0.304688 32.234375 0.609375 C 30.359375 0.921875 28.671875 1.078125 27.171875 1.078125 C 15.785156 1.078125 10.09375 -4.921875 10.09375 -16.921875 L 10.09375 -51.9375 L 1.671875 -51.9375 L 1.671875 -56.234375 L 10.09375 -59.9375 L 13.859375 -72.5 L 19.015625 -72.5 L 19.015625 -58.859375 L 36.09375 -58.859375 L 36.09375 -51.9375 L 19.015625 -51.9375 L 19.015625 -17.296875 C 19.015625 -13.742188 19.851562 -11.019531 21.53125 -9.125 C 23.21875 -7.226562 25.53125 -6.28125 28.46875 -6.28125 Z M 28.46875 -6.28125 "/></g></g></g><g fill="rgb(100%, 100%, 100%)" fill-opacity="1"><g transform="translate(1118.300198, 542.309345)"><g><path d="M 34.3125 1.078125 C 25.613281 1.078125 18.75 -1.570312 13.71875 -6.875 C 8.6875 -12.175781 6.171875 -19.535156 6.171875 -28.953125 C 6.171875 -38.429688 8.503906 -45.960938 13.171875 -51.546875 C 17.847656 -57.140625 24.125 -59.9375 32 -59.9375 C 39.375 -59.9375 45.207031 -57.507812 49.5 -52.65625 C 53.800781 -47.800781 55.953125 -41.398438 55.953125 -33.453125 L 55.953125 -27.8125 L 15.40625 -27.8125 C 15.59375 -20.90625 17.335938 -15.660156 20.640625 -12.078125 C 23.953125 -8.503906 28.617188 -6.71875 34.640625 -6.71875 C 40.972656 -6.71875 47.238281 -8.039062 53.4375 -10.6875 L 53.4375 -2.734375 C 50.28125 -1.378906 47.296875 -0.40625 44.484375 0.1875 C 41.679688 0.78125 38.289062 1.078125 34.3125 1.078125 Z M 31.90625 -52.46875 C 27.175781 -52.46875 23.40625 -50.925781 20.59375 -47.84375 C 17.78125 -44.769531 16.125 -40.507812 15.625 -35.0625 L 46.40625 -35.0625 C 46.40625 -40.6875 45.148438 -44.992188 42.640625 -47.984375 C 40.128906 -50.972656 36.550781 -52.46875 31.90625 -52.46875 Z M 31.90625 -52.46875 "/></g></g></g><g fill="rgb(100%, 100%, 100%)" fill-opacity="1"><g transform="translate(1180.003122, 542.309345)"><g><path d="M 36.296875 -59.9375 C 38.910156 -59.9375 41.257812 -59.71875 43.34375 -59.28125 L 42.109375 -51.015625 C 39.671875 -51.554688 37.519531 -51.828125 35.65625 -51.828125 C 30.894531 -51.828125 26.820312 -49.890625 23.4375 -46.015625 C 20.050781 -42.148438 18.359375 -37.335938 18.359375 -31.578125 L 18.359375 0 L 9.453125 0 L 9.453125 -58.859375 L 16.8125 -58.859375 L 17.828125 -47.953125 L 18.265625 -47.953125 C 20.441406 -51.785156 23.066406 -54.738281 26.140625 -56.8125 C 29.222656 -58.894531 32.609375 -59.9375 36.296875 -59.9375 Z M 36.296875 -59.9375 "/></g></g></g></svg>