<svg xmlns="http://www.w3.org/2000/svg" xmlns:xlink="http://www.w3.org/1999/xlink" width="500" zoomAndPan="magnify" viewBox="0 0 375 374.999991" height="500" preserveAspectRatio="xMidYMid meet" version="1.0"><defs><clipPath id="id1"><path d="M 116 261 L 294 261 L 294 338 L 116 338 Z M 116 261 " clip-rule="nonzero"/></clipPath><clipPath id="id2"><path d="M 222.75 222.75 L 293.8125 293.8125 L 187.75 399.878906 L 116.683594 328.816406 Z M 222.75 222.75 " clip-rule="nonzero"/></clipPath><clipPath id="id3"><path d="M 187.5 187.5 L 293.566406 293.566406 L 187.5 399.632812 L 81.433594 293.566406 Z M 187.5 187.5 " clip-rule="nonzero"/></clipPath><clipPath id="id4"><path d="M 37 81 L 114 81 L 114 294 L 37 294 Z M 37 81 " clip-rule="nonzero"/></clipPath><clipPath id="id5"><path d="M 187.5 187.5 L 81.433594 293.566406 L -24.632812 187.5 L 81.433594 81.433594 Z M 187.5 187.5 " clip-rule="nonzero"/></clipPath><clipPath id="id6"><path d="M 187.5 187.5 L 81.433594 293.566406 L -24.632812 187.5 L 81.433594 81.433594 Z M 187.5 187.5 " clip-rule="nonzero"/></clipPath><clipPath id="id7"><path d="M 261 81 L 338 81 L 338 294 L 261 294 Z M 261 81 " clip-rule="nonzero"/></clipPath><clipPath id="id8"><path d="M 187.5 187.5 L 293.566406 81.433594 L 399.632812 187.5 L 293.566406 293.566406 Z M 187.5 187.5 " clip-rule="nonzero"/></clipPath><clipPath id="id9"><path d="M 187.5 187.5 L 293.566406 81.433594 L 399.632812 187.5 L 293.566406 293.566406 Z M 187.5 187.5 " clip-rule="nonzero"/></clipPath><clipPath id="id10"><path d="M 37.5 37.5 L 187.5 37.5 L 187.5 187.5 L 37.5 187.5 Z M 37.5 37.5 " clip-rule="nonzero"/></clipPath><clipPath id="id11"><path d="M 187.5 187.5 L 337.5 187.5 L 337.5 337.5 L 187.5 337.5 Z M 187.5 187.5 " clip-rule="nonzero"/></clipPath><clipPath id="id12"><path d="M 81 37 L 260 37 L 260 114 L 81 114 Z M 81 37 " clip-rule="nonzero"/></clipPath><clipPath id="id13"><path d="M 153.101562 153.105469 L 81.507812 81.511719 L 187.574219 -24.554688 L 259.167969 47.039062 Z M 153.101562 153.105469 " clip-rule="nonzero"/></clipPath><clipPath id="id14"><path d="M 187.496094 187.496094 L 81.429688 81.433594 L 187.496094 -24.632812 L 293.5625 81.433594 Z M 187.496094 187.496094 " clip-rule="nonzero"/></clipPath><clipPath id="id15"><path d="M 308.597656 37.5 L 366.347656 37.5 L 366.347656 337.5 L 308.597656 337.5 Z M 308.597656 37.5 " clip-rule="nonzero"/></clipPath><clipPath id="id16"><path d="M 308.597656 37.5 L 348 37.5 L 348 318 L 308.597656 318 Z M 308.597656 37.5 " clip-rule="nonzero"/></clipPath><clipPath id="id17"><path d="M 8.789062 37.5 L 66.539062 37.5 L 66.539062 337.5 L 8.789062 337.5 Z M 8.789062 37.5 " clip-rule="nonzero"/></clipPath><clipPath id="id18"><path d="M 27 57 L 66.539062 57 L 66.539062 337.5 L 27 337.5 Z M 27 57 " clip-rule="nonzero"/></clipPath></defs><g clip-path="url(#id1)"><g clip-path="url(#id2)"><g clip-path="url(#id3)"><path fill="rgb(0%, 0%, 0%)" d="M 261.855469 261.855469 C 220.824219 302.882812 154.175781 302.882812 113.144531 261.855469 L 81.433594 293.566406 C 140.019531 352.152344 234.980469 352.152344 293.566406 293.566406 Z M 261.855469 261.855469 " fill-opacity="1" fill-rule="nonzero"/></g></g></g><path stroke-linecap="butt" transform="matrix(29.181537, -29.181537, 29.168154, 29.168154, 51.858685, 323.135955)" fill="none" stroke-linejoin="miter" d="M -0.00000126902 0.0000249223 L 9.286893 -0.0000420386 " stroke="rgb(0%, 0%, 0%)" stroke-width="1" stroke-opacity="1" stroke-miterlimit="4"/><g clip-path="url(#id4)"><g clip-path="url(#id5)"><g clip-path="url(#id6)"><path fill="rgb(0%, 0%, 0%)" d="M 113.144531 261.855469 C 72.117188 220.824219 72.117188 154.175781 113.144531 113.144531 L 81.433594 81.433594 C 22.847656 140.019531 22.847656 234.980469 81.433594 293.566406 Z M 113.144531 261.855469 " fill-opacity="1" fill-rule="nonzero"/></g></g></g><g clip-path="url(#id7)"><g clip-path="url(#id8)"><g clip-path="url(#id9)"><path fill="rgb(0%, 0%, 0%)" d="M 261.855469 113.144531 C 302.882812 154.175781 302.882812 220.824219 261.855469 261.855469 L 293.566406 293.566406 C 352.152344 234.980469 352.152344 140.019531 293.566406 81.433594 Z M 261.855469 113.144531 " fill-opacity="1" fill-rule="nonzero"/></g></g></g><g clip-path="url(#id10)"><path fill="rgb(0%, 0%, 0%)" d="M 82.347656 187.5 C 82.347656 129.476562 129.476562 82.347656 187.5 82.347656 L 187.5 37.5 C 104.644531 37.5 37.5 104.644531 37.5 187.5 Z M 82.347656 187.5 " fill-opacity="1" fill-rule="nonzero"/></g><g clip-path="url(#id11)"><path fill="rgb(0%, 0%, 0%)" d="M 292.652344 187.5 C 292.652344 245.523438 245.523438 292.652344 187.5 292.652344 L 187.5 337.5 C 270.355469 337.5 337.5 270.355469 337.5 187.5 Z M 292.652344 187.5 " fill-opacity="1" fill-rule="nonzero"/></g><path fill="rgb(0%, 0%, 0%)" d="M 187.167969 122.691406 C 151.335938 122.691406 122.292969 151.734375 122.292969 187.566406 C 122.292969 223.394531 151.335938 252.441406 187.167969 252.441406 C 222.996094 252.441406 252.042969 223.394531 252.042969 187.566406 C 252.042969 151.734375 222.996094 122.691406 187.167969 122.691406 " fill-opacity="1" fill-rule="nonzero"/><g clip-path="url(#id12)"><g clip-path="url(#id13)"><g clip-path="url(#id14)"><path fill="rgb(0%, 0%, 0%)" d="M 113.140625 113.144531 C 154.171875 72.117188 220.820312 72.117188 261.847656 113.144531 L 293.5625 81.433594 C 234.972656 22.84375 140.015625 22.84375 81.429688 81.433594 Z M 113.140625 113.144531 " fill-opacity="1" fill-rule="nonzero"/></g></g></g><g clip-path="url(#id15)"><path fill="rgb(0%, 0%, 0%)" d="M 324.097656 37.5 L 66.679688 292.648438 L 66.679688 337.5 L 366.679688 37.5 Z M 324.097656 37.5 " fill-opacity="1" fill-rule="nonzero"/></g><g clip-path="url(#id16)"><path fill="rgb(0%, 0%, 0%)" d="M 169.789062 37.5 L 66.679688 140.613281 L 66.679688 317.96875 L 347.144531 37.5 Z M 169.789062 37.5 " fill-opacity="1" fill-rule="nonzero"/></g><g clip-path="url(#id17)"><path fill="rgb(0%, 0%, 0%)" d="M 51.039062 337.5 L 308.457031 82.347656 L 308.457031 37.5 L 8.460938 337.5 Z M 51.039062 337.5 " fill-opacity="1" fill-rule="nonzero"/></g><g clip-path="url(#id18)"><path fill="rgb(0%, 0%, 0%)" d="M 205.347656 337.5 L 308.457031 234.382812 L 308.457031 57.027344 L 27.992188 337.5 Z M 205.347656 337.5 " fill-opacity="1" fill-rule="nonzero"/></g></svg>